<svg height="512pt" viewBox="0 -76 512.00035 512" width="512pt" xmlns="http://www.w3.org/2000/svg"><path d="m469.035156 111.527344c5.410156 8.109375 7.953125 17.828125 7.84375 27.578125-.3125 28.707031 10.589844 50.105469 31.445313 65.023437 2.734375 1.957032 2.429687 6.09375-.59375 7.566406-16.707031 8.140626-35 8.417969-54.566407 2.386719l-59.597656-95.058593 10.800782-8.359376c20.464843-15.839843 49.3125-22.144531 64.667968.863282zm0 0" fill="#4d9ae8"/><path d="m508.324219 204.128906c-20.859375-14.917968-31.757813-36.316406-31.445313-65.023437.289063-26.199219-19.082031-54.476563-57.265625-37.605469 26.542969-3.410156 41.007813 19.621094 40.757813 42.3125-.316406 28.703125 10.585937 50.105469 31.441406 65.019531 2.738281 1.957031 2.429688 6.09375-.59375 7.566407-.835938.40625-1.679688.78125-2.527344 1.148437 6.546875-.945313 12.898438-2.863281 19.035156-5.855469 3.023438-1.472656 3.332032-5.605468.597657-7.5625zm0 0" fill="#4181c2"/><path d="m472.578125 292.980469c-5.875-51.078125-20.523437-99.441407-41.84375-145.742188-18.800781-40.824219-61.28125-65.410156-106.109375-62.203125l-53.125 3.800782c-26.140625 1.871093-52.289062-3.476563-75.597656-15.449219l-80.863282-41.550781c-17.40625-8.945313-38.578124-6.046876-52.894531 7.300781-22.113281 20.613281-39.734375 45.539062-53.027343 74.617187-6.273438 13.722656-5.753907 29.75 1.949218 42.722656 1.773438 2.988282 3.65625 5.855469 5.652344 8.59375 13.789062 18.933594 39.433594 24.785157 60.03125 13.628907l43.183594-23.394531c6.15625-3.332032 13.835937-1.394532 17.675781 4.457031l31.679687 48.316406c4.695313 7.15625 6.21875 16 3.917969 24.242187-6.722656 24.089844-22.027343 46.8125-42.386719 68.730469l28.558594 12.375 20.480469 3.09375 21.71875-25.429687c25.472656-29.824219 62.730469-46.996094 101.953125-46.996094h34.886719c41.875 0 79.132812 29.566406 86.632812 72.425781l26.828125-5.113281zm0 0" fill="#da9783"/><path d="m249.667969 88.726562c17.679687 1.441407 25.40625-.558593 74.957031-3.691406 44.828125-3.207031 87.308594 21.378906 106.109375 62.203125 21.320313 46.300781 35.96875 94.664063 41.84375 145.742188l-20.699219 18.421875-4.894531.933594c-6.023437-50.351563-20.554687-98.074219-41.601563-143.78125-18.800781-40.824219-61.277343-65.410157-106.109374-62.203126l-53.125 3.800782zm0 0" fill="#ba8170"/><path d="m271.5 88.835938c-5.730469.410156-11.460938.453124-17.164062.175781v61.425781c0 27.972656 22.679687 50.652344 50.652343 50.652344 27.976563 0 50.652344-22.679688 50.652344-50.652344v-63.171875c-24.367187-5.300781-38.3125-.75-84.140625 1.570313zm0 0" fill="#4d9ae8"/><path d="m254.328125 88.921875v20.554687l44.933594-3.214843c19.871093-1.421875 39.277343 2.628906 56.371093 11.121093v-30.207031c-30.136718-6.550781-60.378906 2.359375-101.304687 1.746094zm0 0" fill="#4181c2"/><path d="m19.796875 92.921875c-3.828125 6.6875-7.386719 13.632813-10.679687 20.832031-6.273438 13.722656-5.753907 29.75 1.949218 42.722656 1.773438 2.988282 3.660156 5.855469 5.652344 8.59375 13.789062 18.933594 39.4375 24.785157 60.03125 13.628907l8.539062-4.625c-11.585937-37.164063-33.464843-64.167969-65.492187-81.152344zm0 0" fill="#ba8170"/><path d="m128.980469 43.875 6.753906-9.4375c-20.703125-26.519531-44.328125-37.902344-71.710937-29.816406-8.019532 2.367187-15.484376 6.429687-21.425782 12.308594-17.015625 16.835937-8.300781 34.351562-40.03125 41.875-1.972656.46875-3.097656 2.59375-2.316406 4.464843 11.335938 27.046875 50.492188 28.660157 70.367188 4.492188 14.363281-17.472657 25.910156-38.652344 58.363281-23.886719zm0 0" fill="#4d9ae8"/><path d="m121.273438 22.308594c-32.453126-14.761719-44 6.417968-58.363282 23.886718-11.582031 14.085938-30.445312 20.347657-47.957031 15.257813-3.125-.90625-5.996094-2.121094-8.605469-3.648437-1.195312.347656-2.449218.683593-3.78125 1-1.972656.46875-3.097656 2.59375-2.3125 4.464843 11.332032 27.046875 50.492188 28.660157 70.363282 4.492188 14.363281-17.472657 25.914062-38.652344 58.367187-23.886719l6.75-9.4375c-4.199219-5.378906-14.460937-12.128906-14.460937-12.128906zm0 0" fill="#4181c2"/><path d="m136.308594 35.726562c13.269531-9.863281 36.402344.410157 57.691406 19.289063 15.359375 13.617187 36.59375 18.765625 56.320312 13.09375 6.8125-1.960937 13.746094-4.890625 20.800782-8.785156 1.617187-.890625 3.632812.179687 3.742187 2.023437 1.535157 25.976563-9.65625 44.910156-41.136719 52.625-19.441406 4.765625-40.007812-.753906-54.054687-15.015625-19.003906-19.304687-28.617187-46.289062-43.9375-55.726562zm0 0" fill="#4d9ae8"/><path d="m274.863281 61.347656c-.109375-1.84375-2.125-2.917968-3.742187-2.023437-4.175782 2.304687-8.304688 4.261719-12.398438 5.890625-4.964844 14.445312-17.003906 24.980468-38.542968 30.257812-20.03125 4.910156-41.734376-.335937-58.65625-20.046875 5.261718 8.039063 11.050781 16.320313 18.148437 23.53125 14.046875 14.261719 34.613281 19.78125 54.054687 15.015625 31.480469-7.714844 42.671876-26.652344 41.136719-52.625zm0 0" fill="#4181c2"/><path d="m107.90625 51.820312c8.050781-7.3125 24.503906-24.59375 29.933594-47.824218 1.015625-4.339844 6.683594-5.453125 9.234375-1.800782 9.230469 13.222657 20.925781 40.503907-1.835938 77.113282-1.90625 3.066406-5.148437 5.046875-8.746093 5.359375-18.21875 1.578125-28.589844-6.207031-32.089844-22.183594-.855469-3.910156.539062-7.96875 3.503906-10.664063zm0 0" fill="#da9783"/><path d="m324.925781 146.644531v-61.625c-3.863281.265625-22.566406 1.609375-39.875 2.847657v58.777343c0 11.007813 8.929688 19.9375 19.9375 19.9375 11.011719 0 19.9375-8.929687 19.9375-19.9375zm0 0" fill="#90d9fe"/><path d="m324.925781 146.644531v-61.625c-3.863281.265625-22.566406 1.609375-39.875 2.847657v58.777343c0 11.007813 8.929688 19.9375 19.9375 19.9375 11.011719 0 19.9375-8.929687 19.9375-19.9375zm0 0" fill="#90d9fe"/><path d="m285.054688 107.277344 14.207031-1.015625c8.695312-.621094 17.304687-.199219 25.664062 1.191406v-22.597656c-12.488281.402343-25.558593 1.921875-39.871093 2.996093zm0 0" fill="#7fc0e0"/><path d="m111.132812 323.332031c-10.589843-4.089843-15.855468-15.992187-11.765624-26.582031 4.089843-10.589844 15.992187-15.855469 26.578124-11.765625 118.804688 45.902344 239.285157 45.902344 358.085938 0 10.59375-4.089844 22.492188 1.179687 26.582031 11.765625 4.089844 10.589844-1.175781 22.492188-11.765625 26.582031-128.964844 49.824219-258.722656 49.835938-387.714844 0zm0 0" fill="#d67046"/><path d="m495.472656 284.019531c1.941406 9.632813-3.25 19.546875-12.726562 23.210938-132.40625 51.15625-261.011719 48.066406-384.285156 1.304687 1.425781 6.515625 5.984374 12.214844 12.667968 14.796875 64.234375 24.816407 129.457032 37.398438 193.859375 37.398438 64.402344 0 129.628907-12.582031 193.859375-37.398438 19.089844-7.375 16.785156-35.253906-3.375-39.3125zm0 0" fill="#bd633e"/><path d="m93.171875 92.933594c0 6.050781-4.902344 10.953125-10.953125 10.953125-6.046875 0-10.949219-4.902344-10.949219-10.953125 0-6.046875 4.902344-10.949219 10.949219-10.949219 6.050781 0 10.953125 4.902344 10.953125 10.949219zm0 0" fill="#475a72"/></svg>