<?xml version="1.0" encoding="iso-8859-1"?>
<!-- Generator: Adobe Illustrator 19.0.0, SVG Export Plug-In . SVG Version: 6.00 Build 0)  -->
<svg version="1.1" id="Layer_1" xmlns="http://www.w3.org/2000/svg" xmlns:xlink="http://www.w3.org/1999/xlink" x="0px" y="0px"
	 viewBox="0 0 512 512" style="enable-background:new 0 0 512 512;" xml:space="preserve">
<path style="fill:#C69C6D;" d="M140.354,180.61l-11.642,30.138l-14.479,37.459c-10.427,6.095-21.076,9.423-31.469,10.836
	c-27.534,3.748-53.339-5.978-68.589-13.65h-0.012c-8.536-4.297-13.779-7.94-14.164-8.22c56.527,15.378,66.802-66.849,97.652-73.271
	c17.375-3.62,28.725,2.137,35.322,7.858C138.089,176.197,140.354,180.61,140.354,180.61z"/>
<path style="fill:#B58A61;" d="M140.354,180.61c0,0-2.265-4.414-7.38-8.851c-17.994,2.312-34.131,15.402-38.732,34.913
	c-0.009,0.039-0.018,0.077-0.027,0.116c-2.75,11.69-10.421,21.665-21.109,27.14c-11.712,6.001-30.251,11.464-58.931,11.464
	c15.25,7.672,41.055,17.398,68.589,13.65c10.392-1.413,21.041-4.741,31.469-10.836l14.479-37.459l-0.005,0.001L140.354,180.61z"/>
<path style="fill:#C69C6D;" d="M482.75,62.372L459.502,97.18L355.532,208.448l-26.646-5.091l-27.429-5.231l-9.972-1.903
	c0-0.642,0.012-1.296,0.035-1.973c0.525-30.406,8.956-92.468,55.745-123.306c4.881-3.223,10.194-6.107,15.95-8.571
	C426.2,35.376,482.75,62.372,482.75,62.372z"/>
<path style="fill:#B58A61;" d="M331.093,185.748c5.535,11.128,3.783,16.277-2.207,17.608c-5.955,1.343-16.102-1.121-27.429-5.231
	c-3.246-1.168-6.574-2.487-9.937-3.877c0.525-30.406,8.956-92.468,55.745-123.306C347.265,70.943,307.039,137.36,331.093,185.748z"
	/>
<path style="fill:#FEC95B;" d="M496.89,176.582c-2.51,0.946-5.29,1.46-8.302,1.46h-54.145c-21.485,0-36.957,20.668-30.838,41.265
	c9.376,31.539,20.388,81.258,23.879,142.514l-26.6,23.318c-19.337-62.342-77.452-107.601-146.157-107.601
	c-38.65,0-76.459,17.585-105.277,43.659c-16.674,15.086-30.336,33.01-39.409,52.031l-18.835-18.076v-0.012
	c5.885-31.364,19.243-101.179,30.383-148.469c7.018-29.787,40.962-44.617,67.269-28.97c3.258,1.938,6.656,3.818,10.205,5.605
	c17.363,8.769,38.101,15.296,61.338,15.296c20.002,0,37.19-3.001,49.591-6.107c13.276-3.316,21.1-6.749,21.1-6.749
	s-7.088-68.379,72.629-95.644c19.453-6.656,40.483-6.667,55.768,7.064l25.969,23.307l18.741,16.826
	C517.908,149.609,512.339,170.872,496.89,176.582z"/>
<path style="fill:#FD5D65;" d="M199.064,183.308v66.008h110.929v-56.819c-12.401,3.106-29.589,6.107-49.591,6.107
	C237.165,198.604,216.428,192.077,199.064,183.308z"/>
<g>
	<path style="fill:#E2AD50;" d="M149.45,321.198c-16.674,15.086-30.336,33.01-39.409,52.031l-18.835-18.076v-0.012
		c5.885-31.364,19.243-101.179,30.383-148.469c7.018-29.787,40.962-44.617,67.269-28.97
		C188.859,177.703,124.357,240.127,149.45,321.198z"/>
	<path style="fill:#E2AD50;" d="M427.484,361.821l-26.6,23.318c-19.337-62.342-77.452-107.601-146.157-107.601
		C254.727,277.539,366.31,262.978,427.484,361.821z"/>
</g>
<path style="fill:#FD5D65;" d="M42.687,322.368c-6.486,6.486-7.313,16.697-2.012,24.182
	c49.306,69.622,130.498,115.076,222.3,115.076s172.995-45.454,222.3-115.076c5.301-7.486,4.475-17.696-2.012-24.182l0,0
	c-8.194-8.194-21.838-7.12-28.525,2.341c-42.483,60.121-112.545,99.376-191.764,99.376S113.695,384.831,71.212,324.71
	C64.525,315.247,50.88,314.176,42.687,322.368L42.687,322.368z"/>
<path style="fill:#5A6572;" d="M450.117,134.304c-3.588,0-6.88-2.28-8.17-5.618c-1.401-3.623-0.18-7.865,2.948-10.18
	c6.447-4.77,15.701,1.347,13.707,9.162C457.625,131.503,454.094,134.304,450.117,134.304z"/>
<path style="fill:#E54E5C;" d="M309.992,256.322H199.063c-3.868,0-7.006-3.138-7.006-7.006v-66.008c0-3.868,3.138-7.006,7.006-7.006
	c3.868,0,7.006,3.138,7.006,7.006v59.002h96.917v-49.813c0-3.868,3.138-7.006,7.006-7.006s7.006,3.138,7.006,7.006v56.819
	C316.998,253.186,313.862,256.322,309.992,256.322z"/>
<g>
</g>
<g>
</g>
<g>
</g>
<g>
</g>
<g>
</g>
<g>
</g>
<g>
</g>
<g>
</g>
<g>
</g>
<g>
</g>
<g>
</g>
<g>
</g>
<g>
</g>
<g>
</g>
<g>
</g>
</svg>
