<svg id="Layer_1" enable-background="new 0 0 512 512" height="512" viewBox="0 0 512 512" width="512" xmlns="http://www.w3.org/2000/svg"><g><path d="m421.615 93.141s42.543 1.277 42.543-50.143c0-18.098-7.917-42.909-41.146-42.909s-85.785-5.788-174.786 76.301-104.595 78.641-143.075 91.568-58.179 70.356-22.727 82.777 123.195-8.07 162.39-34.651 83.023-115.889 176.801-122.943z" fill="#2e5d7e"/><path d="m423.012.088c-7.578 0-16.166-.298-25.958.211 29.064 2.357 36.198 25.538 36.198 42.698 0 51.42-42.543 50.143-42.543 50.143-93.778 7.054-137.607 96.361-176.802 122.943-27.218 18.459-77.845 33.976-118.117 37.579 40.685 4.941 114.112-13.903 149.023-37.579 39.195-26.582 83.024-115.889 176.802-122.943 0 0 42.543 1.277 42.543-50.143 0-18.097-7.918-42.909-41.146-42.909z" fill="#224e6f"/><path d="m0 235.471 165.829-28.215c11.182-2.66 21.515-8.088 30.051-15.784l148.927-119.482 59.71 79.227-98.421 274.041c-8.876 27.293-9.486 60.29-7.607 82.243.199 2.331-1.643 4.326-3.982 4.327l-294.507.172z" fill="#963f1c"/><path d="m404.517 151.217-59.71-79.227-19.26 15.452 48.065 63.775-98.421 274.041c-9.48 29.151-9.531 64.81-7.191 86.567l-268 .157v.018l294.507-.172c2.34-.001 4.182-1.996 3.982-4.327-1.879-21.952-1.269-54.95 7.607-82.243z" fill="#823717"/><g><ellipse cx="484.939" cy="91.767" fill="#c63" rx="59.27" ry="26.884" transform="matrix(.057 -.998 .998 .057 365.533 570.651)"/><ellipse cx="344.81" cy="91.767" fill="#b05121" rx="26.884" ry="59.27" transform="matrix(.998 -.057 .057 .998 -4.692 19.911)"/></g><path d="m333.064 142.958c0 30.866 4.258 61.502 12.59 90.574 8.331 29.073 12.59 59.709 12.59 90.574 0 19.354 12.609 35.043 28.163 35.043h56.829c15.554 0 28.163-15.689 28.163-35.043 0-30.865 4.258-61.502 12.59-90.574 8.331-29.073 12.59-59.709 12.59-90.574 0-39.195-25.536-70.968-57.035-70.968h-49.444c-31.5 0-57.036 31.774-57.036 70.968z" fill="#c63"/><path d="m439.544 71.99h-30.905c31.5 0 57.035 31.773 57.035 70.968 0 30.865-4.258 61.502-12.59 90.574-8.331 29.072-12.59 59.709-12.59 90.574 0 19.354-12.609 35.043-28.163 35.043h30.905c15.554 0 28.163-15.69 28.163-35.043 0-30.866 4.258-61.502 12.59-90.574 8.331-29.073 12.59-59.709 12.59-90.574 0-39.194-25.536-70.968-57.035-70.968z" fill="#b05121"/><path d="m3.735 207.12 65.641-4.352-22.998 188.595-46.378 14.655v-194.907c0-2.106 1.634-3.851 3.735-3.991z" fill="#ec9b46"/><path d="m345.517 275.896c-3.128-2.712-7.865-2.375-10.579.757-.176.203-17.902 20.556-43.223 40.84-22.938 18.375-56.85 40.366-88.149 40.783-.132.002-.26.002-.392.002-23.384 0-50.821-27.827-79.372-80.513-22.519-41.556-37.452-83.869-37.6-84.292-1.371-3.909-5.652-5.97-9.559-4.596-3.909 1.37-5.966 5.649-4.596 9.558.619 1.766 15.419 43.726 38.485 86.324 31.807 58.742 62.972 88.519 92.644 88.519.197 0 .395-.001.591-.004 67.306-.896 139.469-83.291 142.508-86.799 2.711-3.129 2.372-7.866-.758-10.579z" fill="#edc19d"/><g fill="#823717"><path d="m389.084 308.314c-3.419-2.334-8.106-1.474-10.445 1.946-2.337 3.42-1.48 8.072 1.939 10.409.059.041 5.92 4.227 10.078 12.24 1.91 3.682 6.437 5.109 10.111 3.203 3.677-1.908 5.11-6.435 3.203-10.111-5.87-11.313-13.981-17.067-14.886-17.687z"/><path d="m451.723 310.274c-2.338-3.419-7.004-4.295-10.425-1.96-.905.619-9.016 6.374-14.886 17.688-1.907 3.677-.474 8.204 3.203 10.111 3.667 1.903 8.199.482 10.111-3.203 4.104-7.912 9.87-12.092 10.072-12.236 3.39-2.346 4.253-6.991 1.925-10.4z"/></g><path d="m491.012 281.564h-150.407c-2.276 0-4.121-1.845-4.121-4.121v-22.663c0-2.276 1.845-4.121 4.121-4.121h150.406c2.276 0 4.121 1.845 4.121 4.121v22.664c0 2.275-1.845 4.12-4.12 4.12z" fill="#fde2c3"/><path d="m491.012 250.659h-30c2.276 0 4.121 1.845 4.121 4.121v22.664c0 2.276-1.845 4.121-4.121 4.121h30c2.276 0 4.121-1.845 4.121-4.121v-22.664c-.001-2.276-1.846-4.121-4.121-4.121z" fill="#edc19d"/><path d="m0 422.731 23.341-6.187c23.996-6.36 41.723-26.659 44.795-51.293l20.784-166.685c1.378-11.051-7.24-20.81-18.376-20.81-9.239 0-17.065 6.81-18.341 15.961l-22.82 163.617c-1.478 10.6-9.17 19.279-19.515 22.022l-9.868 2.615z" fill="#823717"/></g></svg>